<svg id="icon-bell" xmlns="http://www.w3.org/2000/svg" width="16.2" height="18" viewBox="0 0 16.2 18">
  <g id="Icon_Color" data-name="Icon Color">
    <path id="Icon_Color-2" data-name="Icon Color" d="M8.1,18a2.7,2.7,0,0,1-2.536-1.8h5.072A2.7,2.7,0,0,1,8.1,18Zm7.2-2.7H.9a.9.9,0,0,1-.9-.9V12.6a.891.891,0,0,1,.264-.636L1.8,10.427V7.2a6.315,6.315,0,0,1,4.63-6.068,1.8,1.8,0,0,1,3.339,0A6.314,6.314,0,0,1,14.4,7.2v3.227l1.536,1.536a.891.891,0,0,1,.264.636v1.8A.9.9,0,0,1,15.3,15.3ZM8.1,2.7A4.505,4.505,0,0,0,3.6,7.2v3.6a.891.891,0,0,1-.264.636L1.8,12.973V13.5H14.4v-.527l-1.536-1.536A.891.891,0,0,1,12.6,10.8V7.2A4.505,4.505,0,0,0,8.1,2.7Z" fill="#435971"/>
    <path id="Icon_Color-3" data-name="Icon Color" d="M8.1,18a2.7,2.7,0,0,1-2.536-1.8h5.072A2.7,2.7,0,0,1,8.1,18Zm7.2-2.7H.9a.9.9,0,0,1-.9-.9V12.6a.891.891,0,0,1,.264-.636L1.8,10.427V7.2a6.315,6.315,0,0,1,4.63-6.068,1.8,1.8,0,0,1,3.339,0A6.314,6.314,0,0,1,14.4,7.2v3.227l1.536,1.536a.891.891,0,0,1,.264.636v1.8A.9.9,0,0,1,15.3,15.3ZM8.1,2.7A4.505,4.505,0,0,0,3.6,7.2v3.6a.891.891,0,0,1-.264.636L1.8,12.973V13.5H14.4v-.527l-1.536-1.536A.891.891,0,0,1,12.6,10.8V7.2A4.505,4.505,0,0,0,8.1,2.7Z" fill="rgba(255,255,255,0.2)"/>
  </g>
</svg>
