
<svg id="Email" xmlns="http://www.w3.org/2000/svg" width="17.25" height="13.8" viewBox="0 0 17.25 13.8">
  <path id="Path_34345" data-name="Path 34345" d="M16.583,2.25H4.042A1.78,1.78,0,0,0,2.25,4.015V8.427H4.042V5.78l5.733,4.236a.908.908,0,0,0,1.075,0L16.583,5.78v7.943H9.417v1.765h7.167a1.78,1.78,0,0,0,1.792-1.765V4.015A1.78,1.78,0,0,0,16.583,2.25ZM10.313,8.207,4.638,4.015H15.987Z" transform="translate(-1.125 -2.25)" fill="#8e9caa"/>
  <path id="Path_34346" data-name="Path 34346" d="M1.125,6.75H5.063V7.875H1.125ZM2.25,8.438H5.625V9.563H2.25Zm1.688,1.688h2.25V11.25H3.938Z" transform="translate(-1.125 2.55)" fill="#8e9caa"/>
</svg>

