<svg id="App" xmlns="http://www.w3.org/2000/svg" width="18" height="18" viewBox="0 0 18 18">
  <g id="Shortcuts_Icon" data-name="Shortcuts Icon">
    <g id="Shape">
      <path id="Shape-2" data-name="Shape" d="M17,18H11a1,1,0,0,1-1-1V11a1,1,0,0,1,1-1h6a1,1,0,0,1,1,1v6A1,1,0,0,1,17,18Zm-5-6v4h4V12ZM7,18H1a1,1,0,0,1-1-1V11a1,1,0,0,1,1-1H7a1,1,0,0,1,1,1v6A1,1,0,0,1,7,18ZM2,12v4H6V12ZM17,8H11a1,1,0,0,1-1-1V1a1,1,0,0,1,1-1h6a1,1,0,0,1,1,1V7A1,1,0,0,1,17,8ZM12,2V6h4V2ZM7,8H1A1,1,0,0,1,0,7V1A1,1,0,0,1,1,0H7A1,1,0,0,1,8,1V7A1,1,0,0,1,7,8ZM2,2V6H6V2Z" fill="#435971"/>
      <path id="Shape-3" data-name="Shape" d="M17,18H11a1,1,0,0,1-1-1V11a1,1,0,0,1,1-1h6a1,1,0,0,1,1,1v6A1,1,0,0,1,17,18Zm-5-6v4h4V12ZM7,18H1a1,1,0,0,1-1-1V11a1,1,0,0,1,1-1H7a1,1,0,0,1,1,1v6A1,1,0,0,1,7,18ZM2,12v4H6V12ZM17,8H11a1,1,0,0,1-1-1V1a1,1,0,0,1,1-1h6a1,1,0,0,1,1,1V7A1,1,0,0,1,17,8ZM12,2V6h4V2ZM7,8H1A1,1,0,0,1,0,7V1A1,1,0,0,1,1,0H7A1,1,0,0,1,8,1V7A1,1,0,0,1,7,8ZM2,2V6H6V2Z" fill="rgba(255,255,255,0.2)"/>
    </g>
  </g>
</svg>
