<svg id="Search_Icon" data-name="Search Icon" xmlns="http://www.w3.org/2000/svg" width="17.723" height="17.724" viewBox="0 0 17.723 17.724">
  <g id="bx-search-alt">
    <g id="Combined_Shape" data-name="Combined Shape">
      <path id="Combined_Shape-2" data-name="Combined Shape" d="M16.382,17.723l-4.163-4.164a7.49,7.49,0,0,1-4.639,1.6,7.579,7.579,0,1,1,7.579-7.579,7.491,7.491,0,0,1-1.6,4.64l4.165,4.164-1.339,1.339h0ZM1.895,7.579A5.684,5.684,0,1,0,7.579,1.895,5.69,5.69,0,0,0,1.895,7.579Zm7.579,0A1.885,1.885,0,0,0,8.916,6.24a1.935,1.935,0,0,0-2.677,0L4.9,4.9a3.875,3.875,0,0,1,5.355,0,3.768,3.768,0,0,1,1.112,2.679Z" fill="#566a7f"/>
      <path id="Combined_Shape-3" data-name="Combined Shape" d="M16.382,17.723l-4.163-4.164a7.49,7.49,0,0,1-4.639,1.6,7.579,7.579,0,1,1,7.579-7.579,7.491,7.491,0,0,1-1.6,4.64l4.165,4.164-1.339,1.339h0ZM1.895,7.579A5.684,5.684,0,1,0,7.579,1.895,5.69,5.69,0,0,0,1.895,7.579Zm7.579,0A1.885,1.885,0,0,0,8.916,6.24a1.935,1.935,0,0,0-2.677,0L4.9,4.9a3.875,3.875,0,0,1,5.355,0,3.768,3.768,0,0,1,1.112,2.679Z" fill="#566a7f"/>
    </g>
  </g>
</svg>
