<svg xmlns="http://www.w3.org/2000/svg" width="18" height="16.8" viewBox="0 0 18 16.8">
  <path id="bank" d="M9,0l9,3.6V4.8H16.8a.557.557,0,0,1-.192.422.647.647,0,0,1-.455.178H1.847a.647.647,0,0,1-.455-.178A.557.557,0,0,1,1.2,4.8H0V3.6ZM2.4,6H4.8v7.2H6V6H8.4v7.2H9.6V6H12v7.2h1.2V6h2.4v7.2h.553a.647.647,0,0,1,.455.178.557.557,0,0,1,.192.422v.6H1.2v-.6a.557.557,0,0,1,.192-.422.647.647,0,0,1,.455-.178H2.4Zm14.953,9a.647.647,0,0,1,.455.178A.557.557,0,0,1,18,15.6v1.2H0V15.6a.557.557,0,0,1,.192-.422A.647.647,0,0,1,.647,15H17.353Z" />
</svg>
