<svg xmlns="http://www.w3.org/2000/svg" width="18" height="15.299" viewBox="0 0 18 15.299">
  <g id="bxs-cart-alt" transform="translate(-1.5 -3)">
    <path id="Path_16" data-name="Path 16" d="M18.6,3H1.5V4.892H3.57l3.169,9.161A1.811,1.811,0,0,0,8.43,15.3H15.9V13.407H8.43l-.655-1.892H15.9a.9.9,0,0,0,.827-.574l2.7-6.623a.985.985,0,0,0-.074-.894A.887.887,0,0,0,18.6,3Z"/>
    <path id="Path_17" data-name="Path 17" d="M9,14.625A1.125,1.125,0,1,1,7.875,13.5,1.125,1.125,0,0,1,9,14.625Z" transform="translate(1.235 2.549)" />
    <path id="Path_18" data-name="Path 18" d="M13.5,14.625A1.125,1.125,0,1,1,12.375,13.5,1.125,1.125,0,0,1,13.5,14.625Z" transform="translate(2.294 2.549)" />
  </g>
</svg>
