<svg xmlns="http://www.w3.org/2000/svg" width="18" height="16" viewBox="0 0 18 16">
  <path id="bxs-business" d="M19.1,6.556H13.7a.894.894,0,0,0-.9.889v2.667H11V3.889A.894.894,0,0,0,10.1,3H2.9a.894.894,0,0,0-.9.889V18.111A.894.894,0,0,0,2.9,19H19.1a.894.894,0,0,0,.9-.889V7.444A.894.894,0,0,0,19.1,6.556ZM7.4,5.667H9.2V7.444H7.4ZM5.6,14.556H3.8V12.778H5.6ZM5.6,11H3.8V9.222H5.6Zm0-3.556H3.8V5.667H5.6Zm3.6,7.111H7.4V12.778H9.2ZM9.2,11H7.4V9.222H9.2Zm8.1,3.556H15.5V12.778h1.8ZM17.3,11H15.5V9.222h1.8Z" transform="translate(-2 -3)" />
</svg>
