<svg xmlns="http://www.w3.org/2000/svg" width="18" height="14" viewBox="0 0 18 14">
  <g id="Group_9" data-name="Group 9" transform="translate(-1678 -567)">
    <path id="Path_5" data-name="Path 5" d="M19.1,4H2.9a.888.888,0,0,0-.9.875v12.25A.888.888,0,0,0,2.9,18H19.1a.888.888,0,0,0,.9-.875V4.875A.888.888,0,0,0,19.1,4Zm-.9,9.625a2.663,2.663,0,0,0-2.7,2.625h-9a2.663,2.663,0,0,0-2.7-2.625V8.375A2.663,2.663,0,0,0,6.5,5.75h9a2.663,2.663,0,0,0,2.7,2.625Z" transform="translate(1676 563)" />
    <path id="Path_6" data-name="Path 6" d="M12,8a4,4,0,1,0,4,4A4,4,0,0,0,12,8Zm0,6a2,2,0,1,1,2-2A2,2,0,0,1,12,14Z" transform="translate(1675 562)" />
  </g>
</svg>
