<svg id="bx-file" xmlns="http://www.w3.org/2000/svg" width="9" height="11.25" viewBox="0 0 9 11.25">
  <path id="Path_34343" data-name="Path 34343" d="M11.945,5.2a.561.561,0,0,0-.11-.165L8.46,1.665a.561.561,0,0,0-.165-.11.533.533,0,0,0-.053-.019A.557.557,0,0,0,8.1,1.507c-.012,0-.023-.007-.034-.007H4.125A1.126,1.126,0,0,0,3,2.625v9A1.126,1.126,0,0,0,4.125,12.75h6.75A1.126,1.126,0,0,0,12,11.625V5.438c0-.012-.006-.023-.007-.035a.536.536,0,0,0-.029-.146.412.412,0,0,0-.019-.052Zm-1.866-.33H8.625V3.42Zm-5.955,6.75v-9H7.5V5.438A.563.563,0,0,0,8.063,6h2.813v5.625Z" transform="translate(-3 -1.5)" fill="#8e9caa"/>
  <path id="Path_34344" data-name="Path 34344" d="M6,8.25h4.5V9.375H6ZM6,10.5h4.5v1.125H6ZM6,6H7.125V7.125H6Z" transform="translate(-3.75 -2.625)" fill="#8e9caa"/>
</svg>
