<svg id="Group_40632" data-name="Group 40632" xmlns="http://www.w3.org/2000/svg" width="11.25" height="11.25" viewBox="0 0 11.25 11.25">
  <path id="Path_34338" data-name="Path 34338" d="M10.688,3.938h-.562V1.125H3.375V3.938H2.813A1.69,1.69,0,0,0,1.125,5.625V9.563A1.126,1.126,0,0,0,2.25,10.688H3.375v1.688h6.75V10.688H11.25a1.126,1.126,0,0,0,1.125-1.125V5.625A1.69,1.69,0,0,0,10.688,3.938ZM4.5,2.25H9V3.938H4.5Zm4.5,9H4.5V9H9Zm2.25-1.687H10.125V7.875H3.375V9.563H2.25V5.625a.563.563,0,0,1,.563-.562h7.875a.563.563,0,0,1,.563.563Z" transform="translate(-1.125 -1.125)" fill="#8e9caa"/>
  <path id="Path_34339" data-name="Path 34339" d="M7.875,5.625h2.25V6.75H7.875Z" transform="translate(-1.125 -1.125)" fill="#8e9caa"/>
</svg>
