<svg xmlns="http://www.w3.org/2000/svg" width="11" height="10.133" viewBox="0 0 11 10.133">
  <path id="Path_34373" data-name="Path 34373" d="M1.328,2h9.844a.328.328,0,0,1,.328.328v.548a.587.587,0,0,1-.174.417L7.563,7.112v3.347l-.656.249V6.922A.328.328,0,0,1,7,6.689L10.844,2.85V2.656H1.656v.2L5.485,6.689a.328.328,0,0,1,.108.233v4.335l-.656.259V7.086L1.174,3.313A.594.594,0,0,1,1,2.886V2.328A.328.328,0,0,1,1.328,2Z" transform="translate(-0.75 -1.75)" fill="#8e9caa" stroke="#8e9caa" stroke-width="0.5"/>
</svg>
