<svg xmlns="http://www.w3.org/2000/svg" width="15" height="13.125" viewBox="0 0 15 13.125">
  <path id="Path_34425" data-name="Path 34425" d="M4.2,10.373a3.552,3.552,0,0,0-.82.8,1.656,1.656,0,0,0-.262.72H5.632v-.7H4.325c.076-.076.142-.142.2-.188s.171-.133.338-.253a2.207,2.207,0,0,0,.587-.566,1,1,0,0,0,.162-.542.858.858,0,0,0-.528-.8,1.775,1.775,0,0,0-.687-.1,1.659,1.659,0,0,0-.662.107.833.833,0,0,0-.371.317,1.377,1.377,0,0,0-.182.566l.838.071a.659.659,0,0,1,.138-.369.352.352,0,0,1,.262-.1.341.341,0,0,1,.255.1.323.323,0,0,1,.1.242.516.516,0,0,1-.1.278,2.538,2.538,0,0,1-.472.425Zm.052,5.987a.373.373,0,0,1-.264-.1.649.649,0,0,1-.152-.354L3,16.017a1.323,1.323,0,0,0,.235.474.993.993,0,0,0,.391.287,1.755,1.755,0,0,0,.649.1,1.51,1.51,0,0,0,.68-.131.938.938,0,0,0,.4-.378,1.023,1.023,0,0,0,.137-.51.772.772,0,0,0-.083-.368.664.664,0,0,0-.233-.245.952.952,0,0,0-.268-.1.884.884,0,0,0,.323-.28.631.631,0,0,0,.106-.359.7.7,0,0,0-.263-.559,1.309,1.309,0,0,0-.852-.223,1.319,1.319,0,0,0-.794.205,1,1,0,0,0-.379.587l.791.142a.544.544,0,0,1,.125-.317.332.332,0,0,1,.241-.092.309.309,0,0,1,.226.083.3.3,0,0,1,.082.223.34.34,0,0,1-.11.253.376.376,0,0,1-.275.1.85.85,0,0,1-.109-.01l-.042.608a1.059,1.059,0,0,1,.271-.052.373.373,0,0,1,.293.118.463.463,0,0,1,.108.33.482.482,0,0,1-.112.332.369.369,0,0,1-.282.126Zm.889-9.453V3.75H4.449a1.378,1.378,0,0,1-.369.49,2.043,2.043,0,0,1-.664.342v.707a2.433,2.433,0,0,0,.878-.45V6.908h.847ZM7.688,4.688H18V6.563H7.688Zm0,4.687H18V11.25H7.688Zm0,4.688H18v1.875H7.688Z" transform="translate(-3 -3.75)" fill="#8e9caa"/>
</svg>
