<svg xmlns="http://www.w3.org/2000/svg" width="16.883" height="9.006" viewBox="0 0 16.883 9.006">
  <g id="analytics-sharp" transform="translate(-0.557 -4.5)">
    <path id="Path_34369" data-name="Path 34369" d="M15.822,4.5a1.617,1.617,0,0,0-1.551,2.074L11.762,9.084a1.613,1.613,0,0,0-1.02,0l-1.86-1.86a1.617,1.617,0,1,0-3.133,0L2.637,10.333a1.62,1.62,0,1,0,1.094,1.094L6.8,8.355a1.612,1.612,0,0,0,1.02,0l1.861,1.861a1.617,1.617,0,1,0,3.133,0l2.548-2.547A1.617,1.617,0,1,0,15.822,4.5Z" fill="#5C5AD0"/>
  </g>
</svg>
