<svg id="Calender" xmlns="http://www.w3.org/2000/svg" width="15.3" height="17" viewBox="0 0 15.3 17">
  <path id="Path_34353" data-name="Path 34353" d="M5.25,8.25H7.11v1.5H5.25Zm0,3H7.11v1.5H5.25Zm3.72-3h1.86v1.5H8.97Zm0,3h1.86v1.5H8.97Zm3.72-3h1.86v1.5H12.69Zm0,3h1.86v1.5H12.69Z" transform="translate(-2.25 -0.214)" fill="#8e9caa"/>
  <path id="Path_34354" data-name="Path 34354" d="M3.95,18.5h11.9a1.7,1.7,0,0,0,1.7-1.7V4.9a1.7,1.7,0,0,0-1.7-1.7h-1.7V1.5h-1.7V3.2H7.35V1.5H5.65V3.2H3.95a1.7,1.7,0,0,0-1.7,1.7V16.8A1.7,1.7,0,0,0,3.95,18.5ZM15.85,6.6V16.8H3.95V6.6Z" transform="translate(-2.25 -1.5)" fill="#8e9caa"/>
</svg>
