<svg xmlns="http://www.w3.org/2000/svg" width="15" height="16.5" viewBox="0 0 15 16.5">
  <g id="Group_40807" data-name="Group 40807" transform="translate(-1.5 -0.75)">
    <path id="Path_34358" data-name="Path 34358" d="M4.5,7.5a.75.75,0,0,1,.75-.75h7.5a.75.75,0,0,1,0,1.5H5.25A.75.75,0,0,1,4.5,7.5Z" fill="#5C5AD0"/>
    <path id="Path_34359" data-name="Path 34359" d="M5.25,9.75a.75.75,0,0,0,0,1.5h7.5a.75.75,0,0,0,0-1.5Z" fill="#5C5AD0"/>
    <path id="Path_34360" data-name="Path 34360" d="M4.5,13.5a.75.75,0,0,1,.75-.75h3a.75.75,0,0,1,0,1.5h-3A.75.75,0,0,1,4.5,13.5Z" fill="#5C5AD0"/>
    <path id="Path_34361" data-name="Path 34361" d="M1.5,3A2.25,2.25,0,0,1,3.75.75h10.5A2.25,2.25,0,0,1,16.5,3V15a2.25,2.25,0,0,1-2.25,2.25H3.75A2.25,2.25,0,0,1,1.5,15Zm2.25-.75h10.5A.75.75,0,0,1,15,3V15a.75.75,0,0,1-.75.75H3.75A.75.75,0,0,1,3,15V3A.75.75,0,0,1,3.75,2.25Z" fill="#5C5AD0" fill-rule="evenodd"/>
    <text id="GST" transform="translate(11.5 5.75)" fill="#5C5AD0" font-size="3" font-family="Helvetica"><tspan x="-6.167" y="0">GST</tspan></text>
  </g>
</svg>
