<svg id="bxs-file-pdf" xmlns="http://www.w3.org/2000/svg" width="9" height="11.25" viewBox="0 0 9 11.25">
  <path id="Path_34340" data-name="Path 34340" d="M6.13,11.01a.842.842,0,0,0-.209.02v.663a.766.766,0,0,0,.17.013c.269,0,.435-.136.435-.366C6.526,11.134,6.384,11.01,6.13,11.01Zm1.961.007a1.038,1.038,0,0,0-.229.02v1.468a.918.918,0,0,0,.176.01A.7.7,0,0,0,8.8,11.73.644.644,0,0,0,8.092,11.017Z" transform="translate(-3.73 -3.878)" fill="#8e9caa"/>
  <path id="Path_34341" data-name="Path 34341" d="M8.625,1.5h-4.5A1.125,1.125,0,0,0,3,2.625v9A1.125,1.125,0,0,0,4.125,12.75h6.75A1.125,1.125,0,0,0,12,11.625V4.875ZM6.093,9.482a1.043,1.043,0,0,1-.729.236,1.254,1.254,0,0,1-.173-.01v.8h-.5V8.3a4.251,4.251,0,0,1,.686-.046,1.078,1.078,0,0,1,.686.179.658.658,0,0,1,.24.519A.721.721,0,0,1,6.093,9.482Zm2.141.762a1.61,1.61,0,0,1-1.035.29,4.334,4.334,0,0,1-.576-.034V8.3a4.47,4.47,0,0,1,.686-.047,1.442,1.442,0,0,1,.919.24.992.992,0,0,1,.38.846A1.138,1.138,0,0,1,8.234,10.244Zm2.078-1.561H9.451V9.2h.805v.413H9.451v.9h-.51V8.267h1.371v.416ZM8.625,5.438H8.063V2.625l2.813,2.813Z" transform="translate(-3 -1.5)" fill="#8e9caa"/>
</svg>
