<svg xmlns="http://www.w3.org/2000/svg" width="17.43" height="16.773" viewBox="0 0 17.43 16.773">
  <g id="bx-phone-call" transform="translate(-1.5 -1.498)">
    <path id="Path_34347" data-name="Path 34347" d="M14.2,18.272a1.778,1.778,0,0,0,1.246-.495L17.8,15.5a.816.816,0,0,0,0-1.182l-3.486-3.354a.9.9,0,0,0-1.229,0L11.7,12.3a6.667,6.667,0,0,1-2.614-1.333A6.315,6.315,0,0,1,7.7,8.452L9.081,7.11a.816.816,0,0,0,0-1.182L5.6,2.574a.9.9,0,0,0-1.229,0L2.014,4.854a1.646,1.646,0,0,0-.514,1.2,12.575,12.575,0,0,0,3.747,8.612A13.583,13.583,0,0,0,14.2,18.272ZM4.986,4.36,7.243,6.532,6.118,7.613a.82.82,0,0,0-.261.763,8.376,8.376,0,0,0,2,3.774,8.912,8.912,0,0,0,3.921,1.929.894.894,0,0,0,.793-.226L13.7,12.745l2.257,2.172-1.743,1.677a11.806,11.806,0,0,1-7.729-3.111A10.929,10.929,0,0,1,3.243,6.037Zm12.2,4.688h1.743a7.244,7.244,0,0,0-2.247-5.385,7.838,7.838,0,0,0-5.6-2.162V3.177a6.025,6.025,0,0,1,4.375,1.659,5.564,5.564,0,0,1,1.724,4.211Z" transform="translate(0)" fill="#5C5AD0"/>
    <path id="Path_34348" data-name="Path 34348" d="M9.75,6C11.325,6,12,6.675,12,8.25h1.5A3.385,3.385,0,0,0,9.75,4.5Z" transform="translate(1.781 0.473)" fill="#5C5AD0"/>
  </g>
</svg>
