<svg xmlns="http://www.w3.org/2000/svg" xmlns:xlink="http://www.w3.org/1999/xlink" width="27.364" height="27.757" viewBox="0 0 27.364 27.757">
  <defs>
    <filter id="Path_26" x="0" y="0" width="27.364" height="27.757" filterUnits="userSpaceOnUse">
      <feOffset dy="1" input="SourceAlpha"/>
      <feGaussianBlur stdDeviation="1.5" result="blur"/>
      <feFlood flood-opacity="0.161"/>
      <feComposite operator="in" in2="blur"/>
      <feComposite in="SourceGraphic"/>
    </filter>
  </defs>
  <g id="__TEMP__SVG__" transform="translate(4.5 3.5)">
    <g transform="matrix(1, 0, 0, 1, -4.5, -3.5)" filter="url(#Path_26)">
      <path id="Path_26-2" data-name="Path 26" d="M7.025,18.69,8.9,21.935a.938.938,0,0,0,1.281.342l1.309-.756a7.572,7.572,0,0,0,1.777,1.043v1.5a.938.938,0,0,0,.938.938h3.751a.938.938,0,0,0,.938-.938v-1.5a7.591,7.591,0,0,0,1.777-1.043l1.309.756a.941.941,0,0,0,1.281-.342l1.876-3.245a.942.942,0,0,0-.342-1.281l-1.287-.744a7.206,7.206,0,0,0,0-2.086l1.287-.744a.94.94,0,0,0,.342-1.281L23.262,9.31a.938.938,0,0,0-1.281-.342l-1.309.756A7.535,7.535,0,0,0,18.9,8.68v-1.5a.938.938,0,0,0-.938-.938H14.206a.938.938,0,0,0-.938.938v1.5a7.591,7.591,0,0,0-1.777,1.043l-1.308-.756A.937.937,0,0,0,8.9,9.31L7.025,12.555a.942.942,0,0,0,.342,1.281l1.287.744a7.206,7.206,0,0,0,0,2.086l-1.287.744A.94.94,0,0,0,7.025,18.69Zm9.056-6.819a3.751,3.751,0,1,1-3.751,3.751A3.755,3.755,0,0,1,16.082,11.871Z" transform="translate(-2.4 -2.74)" fill="#5C5AD0"/>
    </g>
  </g>
</svg>


