<svg xmlns="http://www.w3.org/2000/svg" width="15.5" height="17.222" viewBox="0 0 15.5 17.222">
  <g id="bx-task" transform="translate(-2.25 -1.5)">
    <path id="Path_19" data-name="Path 19" d="M3.972,18.722H16.028A1.724,1.724,0,0,0,17.75,17V4.083a1.724,1.724,0,0,0-1.722-1.722H14.306a.861.861,0,0,0-.861-.861H6.556a.861.861,0,0,0-.861.861H3.972A1.724,1.724,0,0,0,2.25,4.083V17A1.724,1.724,0,0,0,3.972,18.722Zm0-14.639H5.694V5.806h8.611V4.083h1.722V17H3.972Z" transform="translate(0 0)" />
    <path id="Path_20" data-name="Path 20" d="M8.25,10.19,6.9,8.845,5.845,9.9,8.25,12.311l3.9-3.9-1.06-1.06Z" transform="translate(1 1.295)" />
  </g>
</svg>
