<svg xmlns="http://www.w3.org/2000/svg" width="18" height="18" viewBox="0 0 18 18">
  <path id="bxs-palette" d="M8.642,19.683A8.986,8.986,0,0,0,11,20h.127a2.7,2.7,0,0,0,2.4-3.875l-.178-.374a1.8,1.8,0,0,1,2.4-2.4h0l.372.179A2.706,2.706,0,0,0,20,11.128a8.935,8.935,0,0,0-.318-2.484,9,9,0,0,0-17.6,3.617A9.064,9.064,0,0,0,8.642,19.683ZM14.15,5.6A1.35,1.35,0,1,1,12.8,6.95,1.35,1.35,0,0,1,14.15,5.6Zm-4.5-.9A1.35,1.35,0,1,1,8.3,6.05,1.35,1.35,0,0,1,9.65,4.7ZM8.3,14.156a1.35,1.35,0,1,1-1.35-1.35,1.35,1.35,0,0,1,1.35,1.35ZM6.05,8.306A1.351,1.351,0,1,1,4.7,9.656,1.35,1.35,0,0,1,6.05,8.306Z" transform="translate(-2 -2.001)" />
</svg>
