<svg xmlns="http://www.w3.org/2000/svg" width="18" height="18" viewBox="0 0 18 18">
  <path id="bxs-cube" d="M19.465,5.677l-8.1-3.6a.9.9,0,0,0-.732,0l-8.1,3.6c-.018.008-.031.022-.049.031a.728.728,0,0,0-.076.036c-.02.013-.035.031-.054.045a.783.783,0,0,0-.171.175c-.018.025-.037.048-.053.073a1.007,1.007,0,0,0-.068.148c-.008.024-.021.047-.028.071A.912.912,0,0,0,2,6.5v9a.9.9,0,0,0,.535.823l8.1,3.6a.848.848,0,0,0,.727-.009l0,.009,8.1-3.6A.9.9,0,0,0,20,15.5v-9A.9.9,0,0,0,19.465,5.677ZM11,3.885,16.884,6.5,11,9.114,9.823,8.591,5.117,6.5Zm.9,13.829v-7.03l6.3-2.8v7.031Z" transform="translate(-2 -2)" />
</svg>
