<svg xmlns="http://www.w3.org/2000/svg" width="18" height="19.99" viewBox="0 0 18 19.99">
  <path id="bxs-package" d="M19.994,7.95a1.06,1.06,0,0,0-.026-.214c-.006-.025-.019-.049-.027-.074a1.114,1.114,0,0,0-.063-.165c-.014-.027-.034-.049-.051-.075a.982.982,0,0,0-.092-.13c-.021-.022-.048-.04-.07-.061a.935.935,0,0,0-.108-.094s-.008,0-.013-.006l-.007-.006-8.081-4.99a.824.824,0,0,0-.873,0L2.464,7.124a.052.052,0,0,1-.01.01l-.009,0a.991.991,0,0,0-.085.073.982.982,0,0,0-.1.082.984.984,0,0,0-.071.1.979.979,0,0,0-.071.1,1.011,1.011,0,0,0-.053.139.721.721,0,0,0-.037.1,1.077,1.077,0,0,0-.026.21C2.005,7.965,2,7.98,2,8v8a1.022,1.022,0,0,0,.464.874l8.08,4.987h0l.018.011a.828.828,0,0,0,.122.054.7.7,0,0,0,.087.039.824.824,0,0,0,.455,0,.835.835,0,0,0,.087-.039.734.734,0,0,0,.122-.054l.018-.011h0l8.08-4.987A1.024,1.024,0,0,0,20,16V8c0-.017-.005-.031-.006-.048Zm-9.019,3.922L4.752,8.005,7.238,6.477l6.151,3.9Zm.043-7.719L17.247,8l-2.02,1.247L9.08,5.344ZM11.9,19.3l0-5.679,2.7-1.678V15l1.8-1V10.825l1.8-1.119v5.7L11.9,19.3Z" transform="translate(-2 -2.009)" />
</svg>
